<?xml version="1.0" encoding="utf-8"?>
<!-- Generator: Adobe Illustrator 19.0.1, SVG Export Plug-In . SVG Version: 6.00 Build 0)  -->
<svg version="1.1" id="Layer_1" xmlns="http://www.w3.org/2000/svg" xmlns:xlink="http://www.w3.org/1999/xlink" x="0px" y="0px"
	 viewBox="0 0 1951.3 1951.3" style="enable-background:new 0 0 1951.3 1951.3;" xml:space="preserve">
<path d="M975.7,0C436.8,0,0,436.8,0,975.7c0,538.8,436.8,975.7,975.7,975.7c538.9,0,975.7-436.8,975.7-975.7
	C1951.3,436.8,1514.5,0,975.7,0z M842.8,1394.2l-188.9,0.6c-245.5,0.8-278.2-280.3-281.8-386.9h-0.5V852.4l-0.8-122.1
	c0-133.8-77.7-109.2-77.7-109.2v-29.5c109.2-7.9,173.2-53.2,173.2-53.2v82.5c41.3-48.3,100.4-81.9,185-82.2l65.3-0.2v-0.1
	c1.5,0,2.9,0,4.3,0c61,0.1,105.6,6.9,138.1,16c46.2,13,70.9,33.1,81.7,44.2L820.3,732.9c-18.4-15.2-41-30-70.3-30l-36.1,0.1
	c0,0-170.9-14.8-170,264.1c0.9,278.9,171.7,263,171.7,263l128.1-0.4L842.8,1394.2z M1559.2,1401.6h-168.9V822.5
	c0,0,6.5-110-169.5-110c-176,0-172.1,110-172.1,110v579.2H891.4V837.3c0,0,0.5-47.3-37-75.8l125.1-139.3c98-79,243-72.4,243-72.4
	s336.8-15.3,336.8,272.6V1401.6z"/>
</svg>
